<svg width="224" height="33" viewBox="0 0 224 33" fill="none" xmlns="http://www.w3.org/2000/svg">
<path d="M21.2 3.6V26H16.016V16.816H5.84V26H0.656V3.6H5.84V12.432H16.016V3.6H21.2ZM34.0198 26.256C32.2064 26.256 30.5744 25.8827 29.1238 25.136C27.6944 24.368 26.5744 23.312 25.7638 21.968C24.9531 20.624 24.5478 19.0987 24.5478 17.392C24.5478 15.6853 24.9531 14.16 25.7638 12.816C26.5744 11.472 27.6944 10.4267 29.1238 9.68C30.5744 8.912 32.2064 8.528 34.0198 8.528C35.8331 8.528 37.4544 8.912 38.8838 9.68C40.3131 10.4267 41.4331 11.472 42.2438 12.816C43.0544 14.16 43.4598 15.6853 43.4598 17.392C43.4598 19.0987 43.0544 20.624 42.2438 21.968C41.4331 23.312 40.3131 24.368 38.8838 25.136C37.4544 25.8827 35.8331 26.256 34.0198 26.256ZM34.0198 22.16C35.2998 22.16 36.3451 21.7333 37.1558 20.88C37.9878 20.0053 38.4038 18.8427 38.4038 17.392C38.4038 15.9413 37.9878 14.7893 37.1558 13.936C36.3451 13.0613 35.2998 12.624 34.0198 12.624C32.7398 12.624 31.6838 13.0613 30.8518 13.936C30.0198 14.7893 29.6038 15.9413 29.6038 17.392C29.6038 18.8427 30.0198 20.0053 30.8518 20.88C31.6838 21.7333 32.7398 22.16 34.0198 22.16ZM57.5805 25.168C57.0898 25.5307 56.4818 25.808 55.7565 26C55.0525 26.1707 54.3058 26.256 53.5165 26.256C51.4685 26.256 49.8792 25.7333 48.7485 24.688C47.6392 23.6427 47.0845 22.1067 47.0845 20.08V13.008H44.4285V9.168H47.0845V4.976H52.0765V9.168H56.3645V13.008H52.0765V20.016C52.0765 20.7413 52.2578 21.3067 52.6205 21.712C53.0045 22.096 53.5378 22.288 54.2205 22.288C55.0098 22.288 55.6818 22.0747 56.2365 21.648L57.5805 25.168ZM76.3955 17.456C76.3955 17.52 76.3635 17.968 76.2995 18.8H63.2755C63.5102 19.8667 64.0648 20.7093 64.9395 21.328C65.8142 21.9467 66.9022 22.256 68.2035 22.256C69.0995 22.256 69.8888 22.128 70.5715 21.872C71.2755 21.5947 71.9262 21.168 72.5235 20.592L75.1795 23.472C73.5582 25.328 71.1902 26.256 68.0755 26.256C66.1342 26.256 64.4168 25.8827 62.9235 25.136C61.4302 24.368 60.2782 23.312 59.4675 21.968C58.6568 20.624 58.2515 19.0987 58.2515 17.392C58.2515 15.7067 58.6462 14.192 59.4355 12.848C60.2462 11.4827 61.3448 10.4267 62.7315 9.68C64.1395 8.912 65.7075 8.528 67.4355 8.528C69.1208 8.528 70.6462 8.89067 72.0115 9.616C73.3768 10.3413 74.4435 11.3867 75.2115 12.752C76.0008 14.096 76.3955 15.664 76.3955 17.456ZM67.4675 12.304C66.3368 12.304 65.3875 12.624 64.6195 13.264C63.8515 13.904 63.3822 14.7787 63.2115 15.888H71.6915C71.5208 14.8 71.0515 13.936 70.2835 13.296C69.5155 12.6347 68.5768 12.304 67.4675 12.304ZM79.399 2.256H84.391V26H79.399V2.256ZM105.504 14.352C106.784 14.7573 107.787 15.44 108.512 16.4C109.237 17.3387 109.6 18.5013 109.6 19.888C109.6 21.8507 108.832 23.3653 107.296 24.432C105.781 25.4773 103.563 26 100.64 26H89.056V3.6H100C102.731 3.6 104.821 4.12267 106.272 5.168C107.744 6.21333 108.48 7.632 108.48 9.424C108.48 10.512 108.213 11.4827 107.68 12.336C107.168 13.1893 106.443 13.8613 105.504 14.352ZM94.208 7.504V12.784H99.36C100.64 12.784 101.611 12.56 102.272 12.112C102.933 11.664 103.264 11.0027 103.264 10.128C103.264 9.25333 102.933 8.60267 102.272 8.176C101.611 7.728 100.64 7.504 99.36 7.504H94.208ZM100.256 22.096C101.621 22.096 102.645 21.872 103.328 21.424C104.032 20.976 104.384 20.2827 104.384 19.344C104.384 17.488 103.008 16.56 100.256 16.56H94.208V22.096H100.256ZM121.045 26.256C119.231 26.256 117.599 25.8827 116.149 25.136C114.719 24.368 113.599 23.312 112.789 21.968C111.978 20.624 111.573 19.0987 111.573 17.392C111.573 15.6853 111.978 14.16 112.789 12.816C113.599 11.472 114.719 10.4267 116.149 9.68C117.599 8.912 119.231 8.528 121.045 8.528C122.858 8.528 124.479 8.912 125.909 9.68C127.338 10.4267 128.458 11.472 129.269 12.816C130.079 14.16 130.485 15.6853 130.485 17.392C130.485 19.0987 130.079 20.624 129.269 21.968C128.458 23.312 127.338 24.368 125.909 25.136C124.479 25.8827 122.858 26.256 121.045 26.256ZM121.045 22.16C122.325 22.16 123.37 21.7333 124.181 20.88C125.013 20.0053 125.429 18.8427 125.429 17.392C125.429 15.9413 125.013 14.7893 124.181 13.936C123.37 13.0613 122.325 12.624 121.045 12.624C119.765 12.624 118.709 13.0613 117.877 13.936C117.045 14.7893 116.629 15.9413 116.629 17.392C116.629 18.8427 117.045 20.0053 117.877 20.88C118.709 21.7333 119.765 22.16 121.045 22.16ZM141.693 26.256C139.88 26.256 138.248 25.8827 136.797 25.136C135.368 24.368 134.248 23.312 133.437 21.968C132.627 20.624 132.221 19.0987 132.221 17.392C132.221 15.6853 132.627 14.16 133.437 12.816C134.248 11.472 135.368 10.4267 136.797 9.68C138.248 8.912 139.88 8.528 141.693 8.528C143.507 8.528 145.128 8.912 146.557 9.68C147.987 10.4267 149.107 11.472 149.917 12.816C150.728 14.16 151.133 15.6853 151.133 17.392C151.133 19.0987 150.728 20.624 149.917 21.968C149.107 23.312 147.987 24.368 146.557 25.136C145.128 25.8827 143.507 26.256 141.693 26.256ZM141.693 22.16C142.973 22.16 144.019 21.7333 144.829 20.88C145.661 20.0053 146.077 18.8427 146.077 17.392C146.077 15.9413 145.661 14.7893 144.829 13.936C144.019 13.0613 142.973 12.624 141.693 12.624C140.413 12.624 139.357 13.0613 138.525 13.936C137.693 14.7893 137.277 15.9413 137.277 17.392C137.277 18.8427 137.693 20.0053 138.525 20.88C139.357 21.7333 140.413 22.16 141.693 22.16ZM161.542 19.248L159.142 21.616V26H154.15V2.256H159.142V15.696L166.438 8.784H172.39L165.222 16.08L173.03 26H166.982L161.542 19.248ZM174.83 8.784H179.822V26H174.83V8.784ZM177.326 6.384C176.409 6.384 175.662 6.11733 175.086 5.584C174.51 5.05067 174.222 4.38933 174.222 3.6C174.222 2.81067 174.51 2.14933 175.086 1.616C175.662 1.08267 176.409 0.815998 177.326 0.815998C178.244 0.815998 178.99 1.072 179.566 1.584C180.142 2.096 180.43 2.736 180.43 3.504C180.43 4.336 180.142 5.02933 179.566 5.584C178.99 6.11733 178.244 6.384 177.326 6.384ZM194.599 8.528C196.733 8.528 198.45 9.168 199.751 10.448C201.074 11.728 201.735 13.6267 201.735 16.144V26H196.743V16.912C196.743 15.5467 196.445 14.5333 195.847 13.872C195.25 13.1893 194.386 12.848 193.255 12.848C191.997 12.848 190.994 13.2427 190.247 14.032C189.501 14.8 189.127 15.952 189.127 17.488V26H184.135V8.784H188.903V10.8C189.565 10.0747 190.386 9.52 191.367 9.136C192.349 8.73067 193.426 8.528 194.599 8.528ZM223.888 8.784V23.12C223.888 26.2773 223.066 28.624 221.424 30.16C219.781 31.696 217.381 32.464 214.224 32.464C212.56 32.464 210.981 32.2613 209.488 31.856C207.994 31.4507 206.757 30.864 205.776 30.096L207.76 26.512C208.485 27.1093 209.402 27.5787 210.512 27.92C211.621 28.2827 212.73 28.464 213.84 28.464C215.568 28.464 216.837 28.0693 217.648 27.28C218.48 26.512 218.896 25.3387 218.896 23.76V23.024C217.594 24.4533 215.781 25.168 213.456 25.168C211.877 25.168 210.426 24.8267 209.104 24.144C207.802 23.44 206.768 22.4587 206 21.2C205.232 19.9413 204.848 18.4907 204.848 16.848C204.848 15.2053 205.232 13.7547 206 12.496C206.768 11.2373 207.802 10.2667 209.104 9.584C210.426 8.88 211.877 8.528 213.456 8.528C215.952 8.528 217.85 9.34933 219.152 10.992V8.784H223.888ZM214.448 21.072C215.77 21.072 216.848 20.688 217.68 19.92C218.533 19.1307 218.96 18.1067 218.96 16.848C218.96 15.5893 218.533 14.576 217.68 13.808C216.848 13.0187 215.77 12.624 214.448 12.624C213.125 12.624 212.037 13.0187 211.184 13.808C210.33 14.576 209.904 15.5893 209.904 16.848C209.904 18.1067 210.33 19.1307 211.184 19.92C212.037 20.688 213.125 21.072 214.448 21.072Z" fill="white"/>
</svg>
