<svg xmlns="http://www.w3.org/2000/svg" width="136" height="47" fill="none"><rect width="136" height="47" fill="#0E1734" rx="4"/><path fill="#fff" d="M17.278 29V17.364h7.256v1.511h-5.5v3.182h2.602c.864 0 1.597.14 2.2.42.605.28 1.067.676 1.386 1.188.322.511.482 1.113.482 1.807 0 .693-.16 1.304-.482 1.835-.319.53-.78.945-1.387 1.244-.602.3-1.335.449-2.199.449h-4.358Zm1.756-1.477h2.602c.5 0 .923-.099 1.267-.296a2.027 2.027 0 0 0 1.063-1.778c0-.523-.2-.972-.602-1.347-.402-.378-.978-.568-1.728-.568h-2.602v3.989Zm8.608 4.75v-12h1.66v1.415h.141c.099-.182.24-.392.426-.631s.444-.447.773-.625c.33-.182.765-.273 1.307-.273.704 0 1.333.178 1.886.534.553.356.987.87 1.301 1.54.319.67.478 1.477.478 2.42 0 .944-.158 1.752-.472 2.427-.314.67-.746 1.187-1.295 1.55-.55.36-1.177.54-1.881.54-.53 0-.964-.089-1.301-.267a2.462 2.462 0 0 1-.784-.625 4.724 4.724 0 0 1-.438-.636h-.102v4.63h-1.699Zm1.665-7.637c0 .614.089 1.152.267 1.614.178.462.435.824.773 1.085.337.258.75.387 1.238.387.508 0 .932-.135 1.273-.404.34-.273.598-.642.773-1.108.178-.466.267-.99.267-1.574a4.34 4.34 0 0 0-.262-1.55c-.17-.46-.428-.82-.772-1.086-.341-.265-.767-.398-1.279-.398-.492 0-.909.127-1.25.381-.337.254-.593.608-.767 1.063-.174.454-.261.984-.261 1.59Zm11.886 4.54c-.818 0-1.532-.187-2.142-.562a3.793 3.793 0 0 1-1.42-1.574c-.337-.674-.506-1.462-.506-2.364 0-.905.169-1.697.506-2.375a3.786 3.786 0 0 1 1.42-1.58c.61-.374 1.324-.562 2.142-.562.818 0 1.532.188 2.142.563.61.375 1.084.901 1.42 1.58.338.677.506 1.469.506 2.374 0 .902-.168 1.69-.505 2.364a3.793 3.793 0 0 1-1.42 1.574c-.61.375-1.325.562-2.143.562Zm.006-1.426c.53 0 .97-.14 1.318-.42.348-.28.606-.654.773-1.12.17-.466.255-.979.255-1.54 0-.556-.085-1.068-.255-1.534a2.5 2.5 0 0 0-.773-1.13c-.348-.284-.788-.427-1.318-.427-.534 0-.977.143-1.33.427a2.54 2.54 0 0 0-.778 1.13c-.167.466-.25.978-.25 1.535 0 .56.083 1.073.25 1.54.17.465.43.838.778 1.119.353.28.796.42 1.33.42Zm11.873-3.847v1.472h-4.727v-1.472h4.727Zm-4.25-3.63V29h-1.664v-8.727h1.664Zm5.438 0V29H52.6v-8.727h1.66Zm3.937 6.346 3.847-6.346h1.83V29h-1.665v-6.352L58.379 29h-1.846v-8.727h1.664v6.346Zm7.96 5.654v-12h1.66v1.415h.142c.098-.182.24-.392.426-.631a2.41 2.41 0 0 1 .773-.625c.33-.182.765-.273 1.306-.273.705 0 1.334.178 1.887.534.553.356.987.87 1.301 1.54.318.67.477 1.477.477 2.42 0 .944-.157 1.752-.471 2.427-.315.67-.746 1.187-1.296 1.55-.549.36-1.176.54-1.88.54-.53 0-.965-.089-1.302-.267a2.463 2.463 0 0 1-.784-.625 4.724 4.724 0 0 1-.437-.636h-.103v4.63h-1.698Zm1.665-7.637c0 .614.09 1.152.267 1.614.178.462.436.824.773 1.085.337.258.75.387 1.239.387.507 0 .932-.135 1.273-.404.34-.273.598-.642.772-1.108.178-.466.267-.99.267-1.574a4.34 4.34 0 0 0-.261-1.55c-.17-.46-.428-.82-.773-1.086-.34-.265-.767-.398-1.278-.398-.493 0-.91.127-1.25.381-.337.254-.593.608-.767 1.063-.174.454-.262.984-.262 1.59Zm11.887 4.54c-.818 0-1.532-.187-2.142-.562a3.793 3.793 0 0 1-1.42-1.574c-.338-.674-.506-1.462-.506-2.364 0-.905.168-1.697.505-2.375a3.785 3.785 0 0 1 1.42-1.58c.61-.374 1.325-.562 2.143-.562.818 0 1.532.188 2.142.563.61.375 1.083.901 1.42 1.58.337.677.506 1.469.506 2.374 0 .902-.169 1.69-.506 2.364a3.793 3.793 0 0 1-1.42 1.574c-.61.375-1.324.562-2.142.562Zm.005-1.426c.53 0 .97-.14 1.319-.42.348-.28.606-.654.772-1.12.17-.466.256-.979.256-1.54 0-.556-.085-1.068-.256-1.534a2.5 2.5 0 0 0-.772-1.13c-.349-.284-.788-.427-1.319-.427-.534 0-.977.143-1.33.427a2.54 2.54 0 0 0-.778 1.13c-.166.466-.25.978-.25 1.535 0 .56.084 1.073.25 1.54.171.465.43.838.779 1.119.352.28.795.42 1.33.42Zm5.96 1.25v-8.727h3.619c.984 0 1.765.21 2.34.63.576.417.864.983.864 1.7 0 .51-.163.916-.489 1.215-.325.3-.757.5-1.295.602.39.046.748.163 1.074.353.326.185.587.435.784.75.2.314.301.69.301 1.125 0 .462-.12.87-.358 1.227-.238.352-.585.629-1.04.83-.45.197-.994.295-1.63.295h-4.17Zm1.596-1.42h2.574c.42 0 .75-.1.988-.302.239-.2.358-.473.358-.818 0-.405-.119-.723-.358-.954-.238-.235-.568-.353-.988-.353H87.27v2.427Zm0-3.67h2.04c.318 0 .59-.046.818-.137.23-.091.407-.22.528-.387a.99.99 0 0 0 .188-.602c0-.337-.138-.6-.415-.79-.276-.19-.655-.284-1.136-.284H87.27v2.2Zm10.006 5.283a3.564 3.564 0 0 1-1.5-.307 2.527 2.527 0 0 1-1.063-.903c-.257-.394-.386-.877-.386-1.449 0-.492.094-.898.284-1.216.19-.318.445-.57.767-.756a4.008 4.008 0 0 1 1.08-.42c.397-.095.802-.167 1.215-.216l1.273-.148c.326-.041.563-.107.71-.198.148-.091.222-.24.222-.444v-.04c0-.496-.14-.88-.42-1.153-.277-.273-.69-.409-1.24-.409-.571 0-1.022.127-1.352.38-.325.25-.55.53-.676.836l-1.596-.364c.19-.53.466-.958.83-1.284.367-.33.79-.568 1.266-.716.478-.151.98-.227 1.506-.227.349 0 .718.042 1.108.125.394.08.761.227 1.102.443.345.216.627.525.847.926.22.398.329.915.329 1.552V29h-1.659v-1.193h-.068c-.11.22-.275.435-.494.648-.22.212-.502.388-.847.528-.344.14-.757.21-1.238.21Zm.369-1.364c.47 0 .871-.092 1.204-.278a1.95 1.95 0 0 0 .767-.727c.178-.303.267-.627.267-.972v-1.125c-.06.06-.177.118-.352.17-.17.05-.365.094-.585.131-.22.035-.434.067-.642.097-.208.026-.383.05-.523.068-.33.042-.63.112-.903.21-.27.099-.485.24-.648.427-.159.181-.239.424-.239.727 0 .42.156.739.466.954.311.213.707.319 1.188.319Zm5.118-6.09v-1.466h7.363v1.466h-2.846V29h-1.659v-7.261h-2.858Zm10.439 1.534h2.534c1.068 0 1.89.265 2.466.795.575.53.863 1.214.863 2.051 0 .546-.128 1.036-.386 1.472-.258.435-.634.78-1.131 1.034-.496.25-1.1.375-1.812.375h-3.813v-8.727h1.665v7.261h2.148c.488 0 .89-.127 1.204-.38.315-.258.472-.586.472-.983 0-.421-.157-.764-.472-1.029-.314-.269-.716-.403-1.204-.403h-2.534v-1.466Z"/></svg>